<svg version="1.1" id="Layer_1" xmlns="http://www.w3.org/2000/svg" xmlns:xlink="http://www.w3.org/1999/xlink" x="0px" y="0px"
	 width="100%" viewBox="0 0 935 170" enable-background="new 0 0 935 170" xml:space="preserve">
<path fill="#46A859" opacity="1.000000" stroke="none"
	d="
M936.000000,39.000000
	C936.000000,82.969788 936.000000,126.939575 936.000000,171.000000
	C768.645264,171.000000 601.290466,171.000000 433.398376,170.535828
	C432.861023,126.685417 432.861023,83.299194 432.861023,39.485115
	C435.848389,39.485115 438.155212,39.485119 440.462036,39.485119
	C603.335205,39.485111 766.208313,39.487103 929.081482,39.464951
	C931.387634,39.464638 933.693848,39.161697 936.000000,39.000000
M917.522705,150.239639
	C912.073486,138.153397 906.624329,126.067169 901.178650,113.988838
	C915.341309,107.259697 921.647278,93.718109 917.752686,78.885506
	C914.510376,66.537460 904.399048,59.270870 889.470093,59.013748
	C877.144775,58.801476 864.812683,58.971500 852.483704,59.011608
	C851.378601,59.015202 850.274414,59.309235 849.067139,59.483181
	C849.067139,90.342224 849.067139,120.922943 849.067139,151.742371
	C852.898560,151.742371 856.466125,151.742371 860.632202,151.742371
	C860.632202,140.248917 860.632202,128.998901 860.632202,117.197952
	C867.841675,117.197952 874.464050,117.203751 881.086365,117.196297
	C887.563477,117.188995 892.177246,119.931549 894.776794,126.041565
	C897.768188,133.072403 900.894470,140.048019 904.084839,146.991257
	C906.663513,152.603180 911.786743,154.040466 917.522705,150.239639
M736.542542,146.184143
	C740.008545,141.623383 744.979309,137.556137 746.666382,132.411972
	C752.382812,114.981339 752.289124,97.110725 746.800232,79.545555
	C743.761841,69.822182 736.912415,62.558472 726.861572,61.366711
	C710.151917,59.385387 693.240356,59.106689 676.270142,58.102409
	C676.270142,90.259850 676.270142,120.946426 676.270142,151.812698
	C690.358704,151.812698 704.165344,152.328842 717.902527,151.576279
	C723.988037,151.242920 729.932983,148.342926 736.542542,146.184143
M466.246521,127.036095
	C463.054504,117.540825 463.100006,107.858551 463.917633,97.976799
	C465.555389,78.182243 475.288452,68.531807 495.171387,67.939888
	C498.304749,67.846619 501.475128,68.245232 504.596252,68.658920
	C510.277985,69.411964 515.935608,70.346878 522.384094,71.324242
	C520.922485,67.360809 525.061707,62.170105 518.995300,61.187691
	C509.378448,59.630306 499.551147,57.810307 489.914551,58.263493
	C470.190582,59.191078 459.520721,68.529015 453.750732,87.552422
	C449.444977,101.748352 450.180542,115.822884 455.077209,129.687012
	C457.888000,137.645248 462.895050,144.056320 470.636047,147.730988
	C488.892212,156.397217 507.312164,155.790497 525.610168,147.841370
	C527.105591,147.191727 528.850525,144.957642 528.879517,143.429321
	C529.135132,129.988495 529.027649,116.540771 529.027649,102.886917
	C517.079346,102.886917 505.734253,102.886917 494.352539,102.886917
	C494.352539,105.438362 494.352539,107.539352 494.352539,110.257637
	C502.480835,110.257637 510.371521,110.257637 518.608765,110.257637
	C518.608765,119.316864 518.839783,127.773918 518.408142,136.196991
	C518.324768,137.824936 515.811523,140.445450 514.143250,140.684784
	C506.266907,141.814667 498.283661,142.943146 490.359314,142.812317
	C479.699097,142.636337 471.079620,138.143265 466.246521,127.036095
M557.329224,98.496941
	C557.329224,85.688477 557.329224,72.880005 557.329224,59.824127
	C553.306213,59.824127 549.760132,59.824127 546.121887,59.824127
	C546.121887,81.854256 545.492004,103.527412 546.343994,125.142166
	C546.909241,139.481567 555.605347,148.514404 569.612915,151.116943
	C577.230469,152.532257 585.160217,153.180191 592.895325,152.862579
	C609.581604,152.177460 621.994690,141.625671 622.802856,126.390160
	C623.931396,105.114609 623.687317,83.765221 623.922119,62.446243
	C623.934265,61.346077 623.218384,59.653042 622.351807,59.223202
	C616.823181,56.480808 612.015625,59.635029 611.997986,65.806313
	C611.946289,83.971680 611.926453,102.137268 611.813416,120.302269
	C611.766541,127.831795 609.789612,134.762222 602.778442,138.619003
	C598.489929,140.978043 593.661499,142.764709 588.859558,143.704681
	C574.513184,146.512939 562.505676,139.425873 559.264160,125.257393
	C557.365112,116.956772 557.893066,108.100899 557.329224,98.496941
M769.794189,151.871185
	C790.055603,151.871185 810.316956,151.871185 830.737122,151.871185
	C830.737122,148.790451 830.737122,146.072556 830.737122,142.902069
	C813.868103,142.902069 797.294556,142.902069 780.666077,142.902069
	C780.666077,131.758224 780.666077,121.079414 780.666077,109.971275
	C795.891785,109.971275 810.649902,109.971275 825.589233,109.971275
	C825.589233,106.802765 825.589233,104.079613 825.589233,100.833206
	C810.553650,100.833206 795.811890,100.833206 780.577820,100.833206
	C780.577820,90.526657 780.477295,80.736679 780.737427,70.956322
	C780.762634,70.006454 782.990173,68.366440 784.241089,68.321579
	C791.391907,68.065163 798.556580,68.194122 805.716553,68.193474
	C813.994263,68.192726 822.271912,68.193298 830.712219,68.193298
	C830.712219,64.935272 830.712219,62.224308 830.712219,59.468773
	C810.008423,59.468773 789.635071,59.468773 769.124695,59.468773
	C769.124695,90.284103 769.124695,120.735306 769.794189,151.871185
M655.035034,116.500000
	C655.035034,97.590317 655.035034,78.680634 655.035034,59.543701
	C651.074890,59.543701 647.676636,59.543701 644.086060,59.543701
	C644.086060,90.464310 644.086060,121.089714 644.086060,151.673645
	C647.909180,151.673645 651.312805,151.673645 655.035034,151.673645
	C655.035034,140.069794 655.035034,128.784897 655.035034,116.500000
z"/>

<path fill="#47A858" opacity="1.000000" stroke="none" 
	d="
M396.531342,1.000000 
	C397.060089,35.469723 397.122894,69.939438 397.178223,104.409172 
	C397.191589,112.721069 397.180206,121.032997 397.180206,130.060532 
	C265.246918,130.060532 133.591263,130.060532 1.467808,130.030273 
	C1.000000,87.035851 1.000000,44.071697 1.000000,1.000000 
	C132.687546,1.000000 264.375122,1.000000 396.531342,1.000000 
M334.105255,97.210358 
	C336.070984,95.668228 338.789429,94.530502 339.872620,92.514244 
	C344.670380,83.583900 348.985657,74.394836 353.512268,65.317741 
	C354.094635,64.150002 354.891998,63.089470 355.589752,61.979271 
	C355.965485,62.122467 356.341248,62.265659 356.716980,62.408852 
	C356.716980,79.125511 356.716980,95.842163 356.716980,112.594208 
	C364.491608,112.594208 371.693665,112.594208 378.769348,112.594208 
	C378.769348,81.589867 378.769348,50.991161 378.769348,19.958302 
	C373.204010,19.958302 367.894775,20.197098 362.618378,19.883474 
	C358.322601,19.628138 355.827881,21.332769 354.045929,25.126854 
	C348.755371,36.391647 343.284668,47.572174 337.841125,58.764595 
	C335.899902,62.755955 333.834686,66.687035 331.431427,71.423347 
	C329.932343,68.618073 328.796478,66.622017 327.778931,64.567375 
	C321.295258,51.475533 314.939240,38.318653 308.268585,25.323092 
	C307.194794,23.231091 304.884003,20.553270 302.926422,20.359957 
	C296.541443,19.729427 290.055237,20.123682 283.455627,20.123682 
	C283.455627,51.246292 283.455627,81.954308 283.455627,112.619385 
	C291.201508,112.619385 298.599060,112.619385 306.378662,112.619385 
	C306.378662,96.177444 306.378662,80.111732 306.378662,64.046013 
	C308.202789,65.175789 309.173767,66.623642 309.969330,68.162186 
	C313.632721,75.246857 317.365417,82.299576 320.840027,89.476662 
	C323.403564,94.771873 326.891144,98.216072 334.105255,97.210358 
M266.569092,33.084282 
	C261.812469,25.508133 254.969696,21.165821 246.049286,20.798304 
	C234.081909,20.305248 222.097214,20.210598 210.118790,20.015749 
	C204.527328,19.924793 198.933182,20.000196 193.305161,20.000196 
	C193.305161,51.453819 193.305161,82.127434 193.305161,112.690308 
	C200.972916,112.690308 208.226151,112.690308 216.126404,112.690308 
	C216.126404,102.869438 216.126404,93.341278 216.126404,83.697594 
	C218.439484,83.697594 220.100494,83.757179 221.756073,83.687813 
	C231.675079,83.272202 233.657883,84.529572 237.598511,93.735863 
	C239.818268,98.921783 241.911942,104.172737 244.413483,109.220421 
	C245.190765,110.788872 247.065262,112.794952 248.530823,112.874214 
	C255.576706,113.255272 262.654510,113.045509 270.501678,113.045509 
	C264.912689,101.240494 259.688965,90.206917 254.416260,79.069908 
	C257.417358,76.666359 260.792603,74.674690 263.245361,71.874901 
	C273.528046,60.137238 272.879333,47.147274 266.569092,33.084282 
M118.322876,23.914295 
	C107.118179,53.419971 95.913483,82.925644 84.452477,113.106270 
	C91.266342,113.106270 97.375008,112.919662 103.464935,113.176872 
	C107.067307,113.329010 109.051270,111.873947 110.231148,108.655479 
	C111.713516,104.611908 113.410065,100.646904 114.895569,96.604408 
	C116.068878,93.411514 118.035172,91.851364 121.627228,91.944168 
	C128.952393,92.133408 136.305359,91.701782 143.603897,92.180756 
	C145.709885,92.318962 148.476379,94.240601 149.530991,96.130768 
	C151.858139,100.301697 153.173599,105.024818 155.152893,109.409309 
	C155.778671,110.795525 157.158752,112.805626 158.266144,112.853531 
	C165.458206,113.164589 172.670242,113.013130 180.400223,113.013130 
	C168.912430,82.820763 157.785538,53.355095 146.337418,24.014765 
	C145.615494,22.164537 142.485550,20.377790 140.307281,20.146011 
	C135.037994,19.585335 129.645309,19.674833 124.352509,20.110868 
	C122.402382,20.271523 120.593056,22.141119 118.322876,23.914295 
M52.500099,20.237278 
	C41.732819,20.237278 30.965536,20.237278 20.102272,20.237278 
	C20.102272,51.485603 20.102272,82.036034 20.102272,112.765656 
	C27.494696,112.765656 34.575336,112.765656 42.332726,112.765656 
	C42.332726,102.101913 42.593506,91.655884 42.218395,81.232727 
	C42.041256,76.310516 43.643887,74.721283 48.387829,75.265015 
	C51.510677,75.622948 54.707825,75.332619 57.871704,75.332611 
	C65.463379,75.332596 73.055046,75.332611 80.763321,75.332611 
	C80.763321,69.082123 80.763321,63.511806 80.763321,57.338776 
	C68.102440,57.338776 55.710926,57.338776 43.303940,57.338776 
	C43.303940,50.520157 43.303940,44.316479 43.303940,37.667912 
	C57.792583,37.667912 71.881447,37.667912 86.072327,37.667912 
	C86.072327,31.765121 86.072327,26.321579 86.072327,20.237286 
	C75.049728,20.237286 64.274918,20.237286 52.500099,20.237278 
z"/>
<path fill="#F6FAF8" opacity="1.000000" stroke="none" 
	d="
M917.660156,150.627930 
	C911.786743,154.040466 906.663513,152.603180 904.084839,146.991257 
	C900.894470,140.048019 897.768188,133.072403 894.776794,126.041565 
	C892.177246,119.931549 887.563477,117.188995 881.086365,117.196297 
	C874.464050,117.203751 867.841675,117.197952 860.632202,117.197952 
	C860.632202,128.998901 860.632202,140.248917 860.632202,151.742371 
	C856.466125,151.742371 852.898560,151.742371 849.067139,151.742371 
	C849.067139,120.922943 849.067139,90.342224 849.067139,59.483181 
	C850.274414,59.309235 851.378601,59.015202 852.483704,59.011608 
	C864.812683,58.971500 877.144775,58.801476 889.470093,59.013748 
	C904.399048,59.270870 914.510376,66.537460 917.752686,78.885506 
	C921.647278,93.718109 915.341309,107.259697 901.178650,113.988838 
	C906.624329,126.067169 912.073486,138.153397 917.660156,150.627930 
M860.088562,87.500473 
	C860.088562,94.236938 860.088562,100.973396 860.088562,107.921593 
	C869.582031,107.921593 878.214478,108.006157 886.844604,107.902809 
	C901.757019,107.724236 909.836731,96.801743 906.347107,82.096062 
	C904.838257,75.737602 901.633423,70.090683 895.258972,69.550262 
	C883.795959,68.578445 872.191467,69.275841 860.088562,69.275841 
	C860.088562,74.945915 860.088562,80.723602 860.088562,87.500473 
z"/>
<path fill="#F8FCF8" opacity="1.000000" stroke="none" 
	d="
M736.242126,146.396088 
	C729.932983,148.342926 723.988037,151.242920 717.902527,151.576279 
	C704.165344,152.328842 690.358704,151.812698 676.270142,151.812698 
	C676.270142,120.946426 676.270142,90.259850 676.270142,58.102409 
	C693.240356,59.106689 710.151917,59.385387 726.861572,61.366711 
	C736.912415,62.558472 743.761841,69.822182 746.800232,79.545555 
	C752.289124,97.110725 752.382812,114.981339 746.666382,132.411972 
	C744.979309,137.556137 740.008545,141.623383 736.242126,146.396088 
M723.487000,141.274399 
	C731.128723,139.022812 735.778015,133.553070 736.818298,126.099060 
	C738.203796,116.172760 739.240356,106.024315 738.768127,96.049820 
	C737.898010,77.671364 733.028076,71.887245 717.091736,69.535522 
	C707.504395,68.120720 697.694092,68.217583 687.961304,67.633751 
	C687.961304,93.188332 687.961304,117.846245 687.961304,143.399612 
	C699.923645,142.809494 711.349304,142.245850 723.487000,141.274399 
z"/>
<path fill="#F4F9F5" opacity="1.000000" stroke="none" 
	d="
M466.394470,127.392471 
	C471.079620,138.143265 479.699097,142.636337 490.359314,142.812317 
	C498.283661,142.943146 506.266907,141.814667 514.143250,140.684784 
	C515.811523,140.445450 518.324768,137.824936 518.408142,136.196991 
	C518.839783,127.773918 518.608765,119.316864 518.608765,110.257637 
	C510.371521,110.257637 502.480835,110.257637 494.352539,110.257637 
	C494.352539,107.539352 494.352539,105.438362 494.352539,102.886917 
	C505.734253,102.886917 517.079346,102.886917 529.027649,102.886917 
	C529.027649,116.540771 529.135132,129.988495 528.879517,143.429321 
	C528.850525,144.957642 527.105591,147.191727 525.610168,147.841370 
	C507.312164,155.790497 488.892212,156.397217 470.636047,147.730988 
	C462.895050,144.056320 457.888000,137.645248 455.077209,129.687012 
	C450.180542,115.822884 449.444977,101.748352 453.750732,87.552422 
	C459.520721,68.529015 470.190582,59.191078 489.914551,58.263493 
	C499.551147,57.810307 509.378448,59.630306 518.995300,61.187691 
	C525.061707,62.170105 520.922485,67.360809 522.384094,71.324242 
	C515.935608,70.346878 510.277985,69.411964 504.596252,68.658920 
	C501.475128,68.245232 498.304749,67.846619 495.171387,67.939888 
	C475.288452,68.531807 465.555389,78.182243 463.917633,97.976799 
	C463.100006,107.858551 463.054504,117.540825 466.394470,127.392471 
z"/>
<path fill="#FAFCFA" opacity="1.000000" stroke="none" 
	d="
M557.329224,98.995865 
	C557.893066,108.100899 557.365112,116.956772 559.264160,125.257393 
	C562.505676,139.425873 574.513184,146.512939 588.859558,143.704681 
	C593.661499,142.764709 598.489929,140.978043 602.778442,138.619003 
	C609.789612,134.762222 611.766541,127.831795 611.813416,120.302269 
	C611.926453,102.137268 611.946289,83.971680 611.997986,65.806313 
	C612.015625,59.635029 616.823181,56.480808 622.351807,59.223202 
	C623.218384,59.653042 623.934265,61.346077 623.922119,62.446243 
	C623.687317,83.765221 623.931396,105.114609 622.802856,126.390160 
	C621.994690,141.625671 609.581604,152.177460 592.895325,152.862579 
	C585.160217,153.180191 577.230469,152.532257 569.612915,151.116943 
	C555.605347,148.514404 546.909241,139.481567 546.343994,125.142166 
	C545.492004,103.527412 546.121887,81.854256 546.121887,59.824127 
	C549.760132,59.824127 553.306213,59.824127 557.329224,59.824127 
	C557.329224,72.880005 557.329224,85.688477 557.329224,98.995865 
z"/>
<path fill="#F4F9F5" opacity="1.000000" stroke="none" 
	d="
M769.459473,151.528839 
	C769.124695,120.735306 769.124695,90.284103 769.124695,59.468773 
	C789.635071,59.468773 810.008423,59.468773 830.712219,59.468773 
	C830.712219,62.224308 830.712219,64.935272 830.712219,68.193298 
	C822.271912,68.193298 813.994263,68.192726 805.716553,68.193474 
	C798.556580,68.194122 791.391907,68.065163 784.241089,68.321579 
	C782.990173,68.366440 780.762634,70.006454 780.737427,70.956322 
	C780.477295,80.736679 780.577820,90.526657 780.577820,100.833206 
	C795.811890,100.833206 810.553650,100.833206 825.589233,100.833206 
	C825.589233,104.079613 825.589233,106.802765 825.589233,109.971275 
	C810.649902,109.971275 795.891785,109.971275 780.666077,109.971275 
	C780.666077,121.079414 780.666077,131.758224 780.666077,142.902069 
	C797.294556,142.902069 813.868103,142.902069 830.737122,142.902069 
	C830.737122,146.072556 830.737122,148.790451 830.737122,151.871185 
	C810.316956,151.871185 790.055603,151.871185 769.459473,151.528839 
z"/>
<path fill="#FAFCFA" opacity="1.000000" stroke="none" 
	d="
M655.035034,117.000000 
	C655.035034,128.784897 655.035034,140.069794 655.035034,151.673645 
	C651.312805,151.673645 647.909180,151.673645 644.086060,151.673645 
	C644.086060,121.089714 644.086060,90.464310 644.086060,59.543701 
	C647.676636,59.543701 651.074890,59.543701 655.035034,59.543701 
	C655.035034,78.680634 655.035034,97.590317 655.035034,117.000000 
z"/>
<path fill="#FCFDFC" opacity="1.000000" stroke="none" 
	d="
M333.679077,97.255890 
	C326.891144,98.216072 323.403564,94.771873 320.840027,89.476662 
	C317.365417,82.299576 313.632721,75.246857 309.969330,68.162186 
	C309.173767,66.623642 308.202789,65.175789 306.378662,64.046013 
	C306.378662,80.111732 306.378662,96.177444 306.378662,112.619385 
	C298.599060,112.619385 291.201508,112.619385 283.455627,112.619385 
	C283.455627,81.954308 283.455627,51.246292 283.455627,20.123682 
	C290.055237,20.123682 296.541443,19.729427 302.926422,20.359957 
	C304.884003,20.553270 307.194794,23.231091 308.268585,25.323092 
	C314.939240,38.318653 321.295258,51.475533 327.778931,64.567375 
	C328.796478,66.622017 329.932343,68.618073 331.431427,71.423347 
	C333.834686,66.687035 335.899902,62.755955 337.841125,58.764595 
	C343.284668,47.572174 348.755371,36.391647 354.045929,25.126854 
	C355.827881,21.332769 358.322601,19.628138 362.618378,19.883474 
	C367.894775,20.197098 373.204010,19.958302 378.769348,19.958302 
	C378.769348,50.991161 378.769348,81.589867 378.769348,112.594208 
	C371.693665,112.594208 364.491608,112.594208 356.716980,112.594208 
	C356.716980,95.842163 356.716980,79.125511 356.716980,62.408852 
	C356.341248,62.265659 355.965485,62.122467 355.589752,61.979271 
	C354.891998,63.089470 354.094635,64.150002 353.512268,65.317741 
	C348.985657,74.394836 344.670380,83.583900 339.872620,92.514244 
	C338.789429,94.530502 336.070984,95.668228 333.679077,97.255890 
z"/>
<path fill="#FBFDFC" opacity="1.000000" stroke="none" 
	d="
M266.755310,33.409592 
	C272.879333,47.147274 273.528046,60.137238 263.245361,71.874901 
	C260.792603,74.674690 257.417358,76.666359 254.416260,79.069908 
	C259.688965,90.206917 264.912689,101.240494 270.501678,113.045509 
	C262.654510,113.045509 255.576706,113.255272 248.530823,112.874214 
	C247.065262,112.794952 245.190765,110.788872 244.413483,109.220421 
	C241.911942,104.172737 239.818268,98.921783 237.598511,93.735863 
	C233.657883,84.529572 231.675079,83.272202 221.756073,83.687813 
	C220.100494,83.757179 218.439484,83.697594 216.126404,83.697594 
	C216.126404,93.341278 216.126404,102.869438 216.126404,112.690308 
	C208.226151,112.690308 200.972916,112.690308 193.305161,112.690308 
	C193.305161,82.127434 193.305161,51.453819 193.305161,20.000196 
	C198.933182,20.000196 204.527328,19.924793 210.118790,20.015749 
	C222.097214,20.210598 234.081909,20.305248 246.049286,20.798304 
	C254.969696,21.165821 261.812469,25.508133 266.755310,33.409592 
M243.849182,62.379658 
	C244.511368,61.439873 245.251175,60.544907 245.823776,59.553383 
	C251.696793,49.383915 245.742432,38.508888 234.106033,38.208393 
	C228.959229,38.075485 223.803711,37.997135 218.661835,38.174648 
	C217.509232,38.214439 215.432053,39.403812 215.413406,40.107246 
	C215.186981,48.644833 215.266495,57.190529 215.266495,65.938019 
	C221.960007,65.938019 227.794128,66.288284 233.557785,65.802521 
	C236.849731,65.525078 240.026901,63.885620 243.849182,62.379658 
z"/>
<path fill="#FBFCFB" opacity="1.000000" stroke="none" 
	d="
M118.521194,23.572769 
	C120.593056,22.141119 122.402382,20.271523 124.352509,20.110868 
	C129.645309,19.674833 135.037994,19.585335 140.307281,20.146011 
	C142.485550,20.377790 145.615494,22.164537 146.337418,24.014765 
	C157.785538,53.355095 168.912430,82.820763 180.400223,113.013130 
	C172.670242,113.013130 165.458206,113.164589 158.266144,112.853531 
	C157.158752,112.805626 155.778671,110.795525 155.152893,109.409309 
	C153.173599,105.024818 151.858139,100.301697 149.530991,96.130768 
	C148.476379,94.240601 145.709885,92.318962 143.603897,92.180756 
	C136.305359,91.701782 128.952393,92.133408 121.627228,91.944168 
	C118.035172,91.851364 116.068878,93.411514 114.895569,96.604408 
	C113.410065,100.646904 111.713516,104.611908 110.231148,108.655479 
	C109.051270,111.873947 107.067307,113.329010 103.464935,113.176872 
	C97.375008,112.919662 91.266342,113.106270 84.452477,113.106270 
	C95.913483,82.925644 107.118179,53.419971 118.521194,23.572769 
M144.083130,73.171463 
	C140.348297,63.154968 136.613480,53.138477 132.878647,43.121983 
	C132.478226,43.169785 132.077805,43.217587 131.677383,43.265392 
	C128.085403,53.096867 124.493439,62.928341 120.324608,73.319183 
	C121.196587,73.882118 122.055214,74.906563 122.942741,74.932251 
	C128.247620,75.085823 133.561325,75.095512 138.867172,74.960655 
	C140.605316,74.916481 142.328796,74.296295 144.083130,73.171463 
z"/>
<path fill="#FAFBFA" opacity="1.000000" stroke="none" 
	d="
M53.000099,20.237282 
	C64.274918,20.237286 75.049728,20.237286 86.072327,20.237286 
	C86.072327,26.321579 86.072327,31.765121 86.072327,37.667912 
	C71.881447,37.667912 57.792583,37.667912 43.303940,37.667912 
	C43.303940,44.316479 43.303940,50.520157 43.303940,57.338776 
	C55.710926,57.338776 68.102440,57.338776 80.763321,57.338776 
	C80.763321,63.511806 80.763321,69.082123 80.763321,75.332611 
	C73.055046,75.332611 65.463379,75.332596 57.871704,75.332611 
	C54.707825,75.332619 51.510677,75.622948 48.387829,75.265015 
	C43.643887,74.721283 42.041256,76.310516 42.218395,81.232727 
	C42.593506,91.655884 42.332726,102.101913 42.332726,112.765656 
	C34.575336,112.765656 27.494696,112.765656 20.102272,112.765656 
	C20.102272,82.036034 20.102272,51.485603 20.102272,20.237278 
	C30.965536,20.237278 41.732819,20.237278 53.000099,20.237282 
z"/>
<path fill="#47A759" opacity="1.000000" stroke="none" 
	d="
M860.088562,87.000885 
	C860.088562,80.723602 860.088562,74.945915 860.088562,69.275841 
	C872.191467,69.275841 883.795959,68.578445 895.258972,69.550262 
	C901.633423,70.090683 904.838257,75.737602 906.347107,82.096062 
	C909.836731,96.801743 901.757019,107.724236 886.844604,107.902809 
	C878.214478,108.006157 869.582031,107.921593 860.088562,107.921593 
	C860.088562,100.973396 860.088562,94.236938 860.088562,87.000885 
z"/>
<path fill="#47A75A" opacity="1.000000" stroke="none" 
	d="
M723.130981,141.478302 
	C711.349304,142.245850 699.923645,142.809494 687.961304,143.399612 
	C687.961304,117.846245 687.961304,93.188332 687.961304,67.633751 
	C697.694092,68.217583 707.504395,68.120720 717.091736,69.535522 
	C733.028076,71.887245 737.898010,77.671364 738.768127,96.049820 
	C739.240356,106.024315 738.203796,116.172760 736.818298,126.099060 
	C735.778015,133.553070 731.128723,139.022812 723.130981,141.478302 
z"/>
<path fill="#4BA75D" opacity="1.000000" stroke="none" 
	d="
M243.552460,62.619537 
	C240.026901,63.885620 236.849731,65.525078 233.557785,65.802521 
	C227.794128,66.288284 221.960007,65.938019 215.266495,65.938019 
	C215.266495,57.190529 215.186981,48.644833 215.413406,40.107246 
	C215.432053,39.403812 217.509232,38.214439 218.661835,38.174648 
	C223.803711,37.997135 228.959229,38.075485 234.106033,38.208393 
	C245.742432,38.508888 251.696793,49.383915 245.823776,59.553383 
	C245.251175,60.544907 244.511368,61.439873 243.552460,62.619537 
z"/>
<path fill="#4EAA60" opacity="1.000000" stroke="none" 
	d="
M120.901459,72.759811 
	C124.493439,62.928341 128.085403,53.096867 131.677383,43.265392 
	C132.077805,43.217587 132.478226,43.169785 132.878647,43.121983 
	C136.613480,53.138477 140.348297,63.154968 143.599243,73.571426 
	C141.117310,73.981987 139.111710,74.109108 137.122620,73.980743 
	C131.711838,73.631546 126.308029,73.174263 120.901459,72.759811 
z"/>
<path fill="#549861" opacity="1.000000" stroke="none" 
	d="
M120.613037,73.039497 
	C126.308029,73.174263 131.711838,73.631546 137.122620,73.980743 
	C139.111710,74.109108 141.117310,73.981987 143.587189,73.955460 
	C142.328796,74.296295 140.605316,74.916481 138.867172,74.960655 
	C133.561325,75.095512 128.247620,75.085823 122.942741,74.932251 
	C122.055214,74.906563 121.196587,73.882118 120.613037,73.039497 
z"/>
</svg>