<svg version="1.1" id="Layer_1" xmlns="http://www.w3.org/2000/svg" xmlns:xlink="http://www.w3.org/1999/xlink" x="0px" y="0px"
	 width="100%" viewBox="0 0 731 475" enable-background="new 0 0 731 475" xml:space="preserve">
<path fill="#FFFFFF" opacity="1.000000" stroke="none" 
	d="
M541.000000,476.000000 
	C360.666656,476.000000 180.833328,476.000000 1.000000,476.000000 
	C1.000000,317.666656 1.000000,159.333328 1.000000,1.000000 
	C244.666672,1.000000 488.333344,1.000000 732.000000,1.000000 
	C732.000000,159.333328 732.000000,317.666656 732.000000,476.000000 
	C668.500000,476.000000 605.000000,476.000000 541.000000,476.000000 
M152.503296,232.943649 
	C147.414948,232.943649 142.326584,232.943649 137.254761,232.943649 
	C137.254761,277.566071 137.254761,321.482208 137.254761,365.511230 
	C305.329742,365.511230 473.147919,365.511230 641.002686,365.511230 
	C641.002686,321.224762 641.002686,277.313934 641.002686,232.943634 
	C478.311798,232.943634 315.906799,232.943634 152.503296,232.943649 
M403.500000,83.928673 
	C296.107483,83.928673 188.714951,83.928673 81.346527,83.928673 
	C81.346527,127.618195 81.346527,170.537888 81.346527,213.633057 
	C213.665863,213.633057 345.706024,213.633057 477.794128,213.633057 
	C477.794128,170.292053 477.794128,127.251549 477.794128,83.928650 
	C453.118073,83.928650 428.809021,83.928650 403.500000,83.928673 
z"/>
<path fill="#44A857" opacity="1.000000" stroke="none" 
	d="
M153.002533,232.943634 
	C315.906799,232.943634 478.311798,232.943634 641.002686,232.943634 
	C641.002686,277.313934 641.002686,321.224762 641.002686,365.511230 
	C473.147919,365.511230 305.329742,365.511230 137.254761,365.511230 
	C137.254761,321.482208 137.254761,277.566071 137.254761,232.943649 
	C142.326584,232.943649 147.414948,232.943649 153.002533,232.943634 
M553.136230,264.518921 
	C553.136230,291.446472 553.136230,318.374023 553.136230,345.500397 
	C557.380005,345.500397 561.080566,345.500397 565.177490,345.500397 
	C565.177490,333.878448 565.177490,322.613098 565.177490,310.866272 
	C572.350769,310.866272 579.136597,310.998444 585.914856,310.827972 
	C592.319397,310.666992 596.594482,313.221222 599.059631,319.293243 
	C602.245789,327.141479 605.737915,334.871094 609.326599,342.545044 
	C609.967468,343.915466 611.596375,345.476532 612.979309,345.711243 
	C615.856506,346.199646 618.874451,345.858887 623.115845,345.858887 
	C617.045471,332.487488 611.352661,319.947601 605.594971,307.265015 
	C614.966370,304.671082 620.622253,297.618561 622.570923,287.241394 
	C626.364807,267.038422 614.603027,252.486984 594.261841,252.403854 
	C582.106567,252.354187 569.950928,252.384781 557.795410,252.407928 
	C556.347229,252.410690 554.899475,252.594101 553.136108,252.715469 
	C553.136108,256.574982 553.136108,260.052246 553.136230,264.518921 
M454.769562,285.887543 
	C454.547913,284.743744 454.304962,283.603577 454.107788,282.455566 
	C450.864044,263.568481 440.590027,253.961609 421.512543,252.941010 
	C409.389679,252.292465 397.218353,252.547119 385.068695,252.402618 
	C383.479156,252.383713 381.889191,252.400024 380.319733,252.400024 
	C380.319733,283.902466 380.319733,314.640411 380.319733,345.520020 
	C394.542450,345.520020 408.526825,346.255859 422.403900,345.349152 
	C443.724701,343.956146 451.761963,332.742432 454.480164,313.637054 
	C455.731720,304.840088 454.813660,295.734467 454.769562,285.887543 
M211.497345,303.864868 
	C215.265564,303.864868 219.033783,303.864868 223.127701,303.864868 
	C223.127701,313.176117 223.248917,321.818085 222.994278,330.449005 
	C222.956970,331.713654 221.256485,333.859985 220.113464,334.012878 
	C211.593964,335.152405 202.914200,337.177979 194.487930,336.478271 
	C178.982193,335.190704 170.516281,326.855774 168.460098,311.571991 
	C167.410461,303.769897 167.541809,295.513031 168.848358,287.749359 
	C171.879349,269.738953 180.314743,262.723297 198.511856,261.379089 
	C200.330933,261.244751 202.200684,261.145325 203.992432,261.405273 
	C211.618378,262.511566 219.223816,263.759277 226.798416,264.949341 
	C226.798416,261.949890 226.798416,258.678619 226.798416,255.448639 
	C214.308746,251.247696 201.804398,249.915359 189.117493,252.094986 
	C176.588196,254.247559 166.631027,260.567383 161.301544,272.462891 
	C154.363876,287.947845 153.661896,304.070129 158.439865,320.268188 
	C161.505356,330.660675 167.963348,338.758392 178.167145,342.817993 
	C195.539597,349.729614 212.956619,348.880859 230.126923,341.645813 
	C232.708389,340.558075 233.761658,338.898254 233.714554,335.904114 
	C233.523163,323.742554 233.651489,311.576202 233.617157,299.411713 
	C233.613617,298.157928 233.311478,296.904999 233.175964,295.866760 
	C221.325653,295.866760 209.944946,295.866760 198.667999,295.866760 
	C198.667999,298.752289 198.667999,301.155579 198.667999,303.864777 
	C202.879654,303.864777 206.694214,303.864777 211.497345,303.864868 
M316.515167,256.906006 
	C316.428528,276.391083 316.542969,295.880005 316.173584,315.359711 
	C315.977814,325.684631 310.254333,332.305206 300.495880,335.541412 
	C278.378967,342.876007 262.012329,331.260498 262.007751,308.190216 
	C262.005035,294.531982 262.007172,280.873749 262.007141,267.215515 
	C262.007141,262.436829 262.007141,257.658142 262.007141,252.854584 
	C257.752686,252.854584 254.053421,252.854584 250.201920,252.854584 
	C250.201920,273.941528 249.806335,294.594818 250.337936,315.224182 
	C250.705933,329.504791 257.596588,340.510132 271.763885,344.429626 
	C279.907166,346.682526 288.916107,347.277863 297.377319,346.611877 
	C316.534027,345.103943 327.453369,333.644623 328.112091,314.489532 
	C328.798584,294.526550 328.401184,274.526062 328.445251,254.541931 
	C328.446594,253.934097 328.086639,253.325455 327.799255,252.412598 
	C325.069183,252.412598 322.414124,252.551193 319.780182,252.374847 
	C316.970673,252.186737 316.282623,253.608078 316.515167,256.906006 
M484.911896,311.556396 
	C484.911896,309.119354 484.911896,306.682281 484.911896,303.776398 
	C500.446167,303.776398 515.359253,303.776398 530.389709,303.776398 
	C530.389709,300.430237 530.389709,297.578552 530.389709,294.199890 
	C515.088440,294.199890 500.191284,294.199890 485.185486,294.199890 
	C485.185486,283.255463 485.185486,272.849304 485.185486,261.919861 
	C502.179474,261.919861 518.907898,261.919861 535.585510,261.919861 
	C535.585510,258.502167 535.585510,255.619904 535.585510,252.652740 
	C514.617493,252.652740 494.026764,252.652740 473.317688,252.652740 
	C473.317688,283.792786 473.317688,314.659271 473.317688,345.612610 
	C494.256409,345.612610 514.839905,345.612610 535.601440,345.612610 
	C535.601440,342.485931 535.601440,339.625214 535.601440,336.327667 
	C518.652954,336.327667 502.060425,336.327667 484.912170,336.327667 
	C484.912170,328.109802 484.912170,320.325195 484.911896,311.556396 
M347.991180,328.498596 
	C347.991180,334.234192 347.991180,339.969818 347.991180,345.481506 
	C352.435303,345.481506 356.014069,345.481506 359.646606,345.481506 
	C359.646606,314.389923 359.646606,283.673798 359.646606,252.772583 
	C355.671509,252.772583 351.961731,252.772583 347.991058,252.772583 
	C347.991058,277.926147 347.991058,302.712708 347.991180,328.498596 
z"/>
<path fill="#45A857" opacity="1.000000" stroke="none" 
	d="
M404.000000,83.928665 
	C428.809021,83.928650 453.118073,83.928650 477.794128,83.928650 
	C477.794128,127.251549 477.794128,170.292053 477.794128,213.633057 
	C345.706024,213.633057 213.665863,213.633057 81.346527,213.633057 
	C81.346527,170.537888 81.346527,127.618195 81.346527,83.928673 
	C188.714951,83.928673 296.107483,83.928673 404.000000,83.928665 
M363.635925,138.499939 
	C363.635925,157.773941 363.635925,177.047958 363.635925,196.551147 
	C371.637360,196.551147 379.033203,196.551147 386.900024,196.551147 
	C386.900024,179.399994 386.900024,162.537766 386.900024,145.675522 
	C392.394470,154.582870 397.412659,163.532486 401.295502,172.950211 
	C403.919250,179.314026 407.498688,181.868057 414.297760,180.991943 
	C417.108643,180.629761 418.755066,180.040771 419.994843,177.368256 
	C423.842987,169.072815 427.968781,160.906021 432.001007,152.696243 
	C433.270660,150.111176 434.584839,147.547974 435.878662,144.974762 
	C436.236908,145.089249 436.595184,145.203735 436.953461,145.318222 
	C436.953461,162.353973 436.953461,179.389740 436.953461,196.502045 
	C444.817078,196.502045 452.209747,196.502045 459.650940,196.502045 
	C459.650940,165.420349 459.650940,134.686295 459.650940,103.415573 
	C453.400879,103.415573 447.424744,103.644135 441.477631,103.327286 
	C438.072723,103.145889 436.468811,104.439713 435.067932,107.389534 
	C428.291779,121.658356 421.302338,135.825974 414.371613,150.021210 
	C413.675751,151.446426 412.866364,152.816238 411.811859,154.760941 
	C410.642090,152.511734 409.788055,150.947311 409.003418,149.348831 
	C402.115601,135.316803 395.278412,121.259590 388.304321,107.270645 
	C387.571838,105.801476 386.105164,103.696449 384.890686,103.635040 
	C377.966644,103.284882 371.015778,103.465157 363.635437,103.465157 
	C363.635437,115.228539 363.635437,126.364235 363.635925,138.499939 
M335.662079,164.135498 
	C333.563354,162.457413 335.250793,161.880753 336.523132,161.196991 
	C345.798187,156.212479 350.795990,148.278137 351.523132,137.965546 
	C352.660950,121.828293 345.454010,104.296204 323.376129,103.828430 
	C307.239868,103.486542 291.094940,103.548561 274.953705,103.465271 
	C274.361969,103.462219 273.768341,103.826752 273.285461,103.984161 
	C273.285461,134.953781 273.285461,165.679138 273.285461,196.533997 
	C280.970764,196.533997 288.362518,196.533997 296.334656,196.533997 
	C296.334656,186.673111 296.334656,177.114563 296.334656,167.159256 
	C299.544006,167.159256 302.196594,167.341354 304.815704,167.122726 
	C310.955536,166.610184 314.839539,169.031296 317.039154,174.951065 
	C319.407318,181.324387 322.345306,187.491470 325.187012,193.678558 
	C325.740845,194.884369 326.963959,196.632095 327.928284,196.664948 
	C335.278748,196.915390 342.641571,196.802185 351.197662,196.802185 
	C345.795807,185.340530 340.931000,175.018356 335.662079,164.135498 
M228.728561,111.756165 
	C228.373032,110.824402 227.889130,109.919968 227.683960,108.956200 
	C226.730850,104.479210 224.207947,102.847649 219.532196,103.303070 
	C214.581421,103.785278 209.538208,103.594025 204.552826,103.345978 
	C201.353409,103.186790 199.944794,104.381828 198.824249,107.372734 
	C190.835327,128.696762 182.630035,149.939713 174.502106,171.211716 
	C171.314438,179.554321 168.148682,187.905319 164.747467,196.845108 
	C172.543854,196.845108 179.658585,196.974167 186.759186,196.715546 
	C187.915924,196.673416 189.505722,195.136475 190.046234,193.914795 
	C192.196152,189.055283 194.157333,184.097763 195.887436,179.072922 
	C196.790237,176.450882 198.130966,175.464981 200.939804,175.527100 
	C208.932266,175.703857 216.934586,175.723236 224.925705,175.518478 
	C227.824173,175.444199 229.032516,176.659897 229.932922,179.155167 
	C231.737640,184.156494 233.664993,189.124710 235.835815,193.974976 
	C236.378906,195.188431 238.011047,196.675934 239.190170,196.718384 
	C246.286041,196.973923 253.395767,196.845306 261.159515,196.845306 
	C250.276047,168.329529 239.621231,140.412796 228.728561,111.756165 
M122.987167,191.347260 
	C122.987167,180.746368 122.987167,170.145462 122.987167,158.982193 
	C136.336609,158.982193 149.053268,158.982193 161.651047,158.982193 
	C161.651047,152.666504 161.651047,146.931885 161.651047,140.875977 
	C148.681793,140.875977 136.073029,140.875977 123.321381,140.875977 
	C123.321381,134.308685 123.321381,128.085098 123.321381,121.346596 
	C138.068420,121.346596 152.485428,121.346596 167.022797,121.346596 
	C167.022797,115.212463 167.022797,109.600258 167.022797,103.780823 
	C144.567200,103.780823 122.352745,103.780823 100.092171,103.780823 
	C100.092171,134.895477 100.092171,165.639587 100.092171,196.531479 
	C107.814590,196.531479 115.210258,196.531479 122.787117,196.531479 
	C122.863487,194.918091 122.925301,193.612228 122.987167,191.347260 
z"/>
<path fill="#F9FCFA" opacity="1.000000" stroke="none" 
	d="
M553.136169,264.024231 
	C553.136108,260.052246 553.136108,256.574982 553.136108,252.715469 
	C554.899475,252.594101 556.347229,252.410690 557.795410,252.407928 
	C569.950928,252.384781 582.106567,252.354187 594.261841,252.403854 
	C614.603027,252.486984 626.364807,267.038422 622.570923,287.241394 
	C620.622253,297.618561 614.966370,304.671082 605.594971,307.265015 
	C611.352661,319.947601 617.045471,332.487488 623.115845,345.858887 
	C618.874451,345.858887 615.856506,346.199646 612.979309,345.711243 
	C611.596375,345.476532 609.967468,343.915466 609.326599,342.545044 
	C605.737915,334.871094 602.245789,327.141479 599.059631,319.293243 
	C596.594482,313.221222 592.319397,310.666992 585.914856,310.827972 
	C579.136597,310.998444 572.350769,310.866272 565.177490,310.866272 
	C565.177490,322.613098 565.177490,333.878448 565.177490,345.500397 
	C561.080566,345.500397 557.380005,345.500397 553.136230,345.500397 
	C553.136230,318.374023 553.136230,291.446472 553.136169,264.024231 
M565.062500,284.498474 
	C565.062500,289.954193 565.062500,295.409882 565.062500,301.091919 
	C575.032715,301.091919 584.483154,301.310516 593.918762,301.030670 
	C603.426453,300.748718 609.044128,295.611511 610.718689,286.395905 
	C612.990723,273.892151 607.677551,263.507477 597.195557,262.519440 
	C586.694885,261.529633 576.028137,262.302002 565.062683,262.302002 
	C565.062683,269.570709 565.062683,276.534790 565.062500,284.498474 
z"/>
<path fill="#FAFDFA" opacity="1.000000" stroke="none" 
	d="
M454.824463,286.328186 
	C454.813660,295.734467 455.731720,304.840088 454.480164,313.637054 
	C451.761963,332.742432 443.724701,343.956146 422.403900,345.349152 
	C408.526825,346.255859 394.542450,345.520020 380.319733,345.520020 
	C380.319733,314.640411 380.319733,283.902466 380.319733,252.400024 
	C381.889191,252.400024 383.479156,252.383713 385.068695,252.402618 
	C397.218353,252.547119 409.389679,252.292465 421.512543,252.941010 
	C440.590027,253.961609 450.864044,263.568481 454.107788,282.455566 
	C454.304962,283.603577 454.547913,284.743744 454.824463,286.328186 
M440.962891,321.136536 
	C444.788147,307.526855 444.504944,293.788849 441.669830,280.119049 
	C439.978210,271.962585 435.448639,265.017090 426.816559,263.778107 
	C415.431580,262.144012 403.819122,262.094727 392.249725,261.360657 
	C392.249725,287.100769 392.249725,311.514801 392.249725,335.842529 
	C402.631622,335.842529 412.787109,336.442261 422.834564,335.657837 
	C431.280792,334.998444 437.833191,330.456451 440.962891,321.136536 
z"/>
<path fill="#F8FCF9" opacity="1.000000" stroke="none" 
	d="
M211.003067,303.864807 
	C206.694214,303.864777 202.879654,303.864777 198.667999,303.864777 
	C198.667999,301.155579 198.667999,298.752289 198.667999,295.866760 
	C209.944946,295.866760 221.325653,295.866760 233.175964,295.866760 
	C233.311478,296.904999 233.613617,298.157928 233.617157,299.411713 
	C233.651489,311.576202 233.523163,323.742554 233.714554,335.904114 
	C233.761658,338.898254 232.708389,340.558075 230.126923,341.645813 
	C212.956619,348.880859 195.539597,349.729614 178.167145,342.817993 
	C167.963348,338.758392 161.505356,330.660675 158.439865,320.268188 
	C153.661896,304.070129 154.363876,287.947845 161.301544,272.462891 
	C166.631027,260.567383 176.588196,254.247559 189.117493,252.094986 
	C201.804398,249.915359 214.308746,251.247696 226.798416,255.448639 
	C226.798416,258.678619 226.798416,261.949890 226.798416,264.949341 
	C219.223816,263.759277 211.618378,262.511566 203.992432,261.405273 
	C202.200684,261.145325 200.330933,261.244751 198.511856,261.379089 
	C180.314743,262.723297 171.879349,269.738953 168.848358,287.749359 
	C167.541809,295.513031 167.410461,303.769897 168.460098,311.571991 
	C170.516281,326.855774 178.982193,335.190704 194.487930,336.478271 
	C202.914200,337.177979 211.593964,335.152405 220.113464,334.012878 
	C221.256485,333.859985 222.956970,331.713654 222.994278,330.449005 
	C223.248917,321.818085 223.127701,313.176117 223.127701,303.864868 
	C219.033783,303.864868 215.265564,303.864868 211.003067,303.864807 
z"/>
<path fill="#FCFEFC" opacity="1.000000" stroke="none" 
	d="
M316.516449,256.455475 
	C316.282623,253.608078 316.970673,252.186737 319.780182,252.374847 
	C322.414124,252.551193 325.069183,252.412598 327.799255,252.412598 
	C328.086639,253.325455 328.446594,253.934097 328.445251,254.541931 
	C328.401184,274.526062 328.798584,294.526550 328.112091,314.489532 
	C327.453369,333.644623 316.534027,345.103943 297.377319,346.611877 
	C288.916107,347.277863 279.907166,346.682526 271.763885,344.429626 
	C257.596588,340.510132 250.705933,329.504791 250.337936,315.224182 
	C249.806335,294.594818 250.201920,273.941528 250.201920,252.854584 
	C254.053421,252.854584 257.752686,252.854584 262.007141,252.854584 
	C262.007141,257.658142 262.007141,262.436829 262.007141,267.215515 
	C262.007172,280.873749 262.005035,294.531982 262.007751,308.190216 
	C262.012329,331.260498 278.378967,342.876007 300.495880,335.541412 
	C310.254333,332.305206 315.977814,325.684631 316.173584,315.359711 
	C316.542969,295.880005 316.428528,276.391083 316.516449,256.455475 
z"/>
<path fill="#F6FBF7" opacity="1.000000" stroke="none" 
	d="
M484.912048,312.048523 
	C484.912170,320.325195 484.912170,328.109802 484.912170,336.327667 
	C502.060425,336.327667 518.652954,336.327667 535.601440,336.327667 
	C535.601440,339.625214 535.601440,342.485931 535.601440,345.612610 
	C514.839905,345.612610 494.256409,345.612610 473.317688,345.612610 
	C473.317688,314.659271 473.317688,283.792786 473.317688,252.652740 
	C494.026764,252.652740 514.617493,252.652740 535.585510,252.652740 
	C535.585510,255.619904 535.585510,258.502167 535.585510,261.919861 
	C518.907898,261.919861 502.179474,261.919861 485.185486,261.919861 
	C485.185486,272.849304 485.185486,283.255463 485.185486,294.199890 
	C500.191284,294.199890 515.088440,294.199890 530.389709,294.199890 
	C530.389709,297.578552 530.389709,300.430237 530.389709,303.776398 
	C515.359253,303.776398 500.446167,303.776398 484.911896,303.776398 
	C484.911896,306.682281 484.911896,309.119354 484.912048,312.048523 
z"/>
<path fill="#FBFDFB" opacity="1.000000" stroke="none" 
	d="
M347.991119,327.998962 
	C347.991058,302.712708 347.991058,277.926147 347.991058,252.772583 
	C351.961731,252.772583 355.671509,252.772583 359.646606,252.772583 
	C359.646606,283.673798 359.646606,314.389923 359.646606,345.481506 
	C356.014069,345.481506 352.435303,345.481506 347.991180,345.481506 
	C347.991180,339.969818 347.991180,334.234192 347.991119,327.998962 
z"/>
<path fill="#FDFEFD" opacity="1.000000" stroke="none" 
	d="
M363.635681,137.999939 
	C363.635437,126.364235 363.635437,115.228539 363.635437,103.465157 
	C371.015778,103.465157 377.966644,103.284882 384.890686,103.635040 
	C386.105164,103.696449 387.571838,105.801476 388.304321,107.270645 
	C395.278412,121.259590 402.115601,135.316803 409.003418,149.348831 
	C409.788055,150.947311 410.642090,152.511734 411.811859,154.760941 
	C412.866364,152.816238 413.675751,151.446426 414.371613,150.021210 
	C421.302338,135.825974 428.291779,121.658356 435.067932,107.389534 
	C436.468811,104.439713 438.072723,103.145889 441.477631,103.327286 
	C447.424744,103.644135 453.400879,103.415573 459.650940,103.415573 
	C459.650940,134.686295 459.650940,165.420349 459.650940,196.502045 
	C452.209747,196.502045 444.817078,196.502045 436.953461,196.502045 
	C436.953461,179.389740 436.953461,162.353973 436.953461,145.318222 
	C436.595184,145.203735 436.236908,145.089249 435.878662,144.974762 
	C434.584839,147.547974 433.270660,150.111176 432.001007,152.696243 
	C427.968781,160.906021 423.842987,169.072815 419.994843,177.368256 
	C418.755066,180.040771 417.108643,180.629761 414.297760,180.991943 
	C407.498688,181.868057 403.919250,179.314026 401.295502,172.950211 
	C397.412659,163.532486 392.394470,154.582870 386.900024,145.675522 
	C386.900024,162.537766 386.900024,179.399994 386.900024,196.551147 
	C379.033203,196.551147 371.637360,196.551147 363.635925,196.551147 
	C363.635925,177.047958 363.635925,157.773941 363.635681,137.999939 
z"/>
<path fill="#FCFEFD" opacity="1.000000" stroke="none" 
	d="
M335.864136,164.415833 
	C340.931000,175.018356 345.795807,185.340530 351.197662,196.802185 
	C342.641571,196.802185 335.278748,196.915390 327.928284,196.664948 
	C326.963959,196.632095 325.740845,194.884369 325.187012,193.678558 
	C322.345306,187.491470 319.407318,181.324387 317.039154,174.951065 
	C314.839539,169.031296 310.955536,166.610184 304.815704,167.122726 
	C302.196594,167.341354 299.544006,167.159256 296.334656,167.159256 
	C296.334656,177.114563 296.334656,186.673111 296.334656,196.533997 
	C288.362518,196.533997 280.970764,196.533997 273.285461,196.533997 
	C273.285461,165.679138 273.285461,134.953781 273.285461,103.984161 
	C273.768341,103.826752 274.361969,103.462219 274.953705,103.465271 
	C291.094940,103.548561 307.239868,103.486542 323.376129,103.828430 
	C345.454010,104.296204 352.660950,121.828293 351.523132,137.965546 
	C350.795990,148.278137 345.798187,156.212479 336.523132,161.196991 
	C335.250793,161.880753 333.563354,162.457413 335.864136,164.415833 
M296.167908,130.551147 
	C296.167908,136.634659 296.167908,142.718185 296.167908,149.093155 
	C303.445831,149.093155 310.078217,149.378098 316.674713,149.013611 
	C323.371979,148.643555 327.519318,143.779022 327.930664,136.703552 
	C328.386108,128.869400 325.146912,122.871201 318.870636,122.245964 
	C311.542847,121.515976 304.086578,122.075439 296.167969,122.075439 
	C296.167969,124.670692 296.167969,127.120804 296.167908,130.551147 
z"/>
<path fill="#FCFDFC" opacity="1.000000" stroke="none" 
	d="
M228.847473,112.126114 
	C239.621231,140.412796 250.276047,168.329529 261.159515,196.845306 
	C253.395767,196.845306 246.286041,196.973923 239.190170,196.718384 
	C238.011047,196.675934 236.378906,195.188431 235.835815,193.974976 
	C233.664993,189.124710 231.737640,184.156494 229.932922,179.155167 
	C229.032516,176.659897 227.824173,175.444199 224.925705,175.518478 
	C216.934586,175.723236 208.932266,175.703857 200.939804,175.527100 
	C198.130966,175.464981 196.790237,176.450882 195.887436,179.072922 
	C194.157333,184.097763 192.196152,189.055283 190.046234,193.914795 
	C189.505722,195.136475 187.915924,196.673416 186.759186,196.715546 
	C179.658585,196.974167 172.543854,196.845108 164.747467,196.845108 
	C168.148682,187.905319 171.314438,179.554321 174.502106,171.211716 
	C182.630035,149.939713 190.835327,128.696762 198.824249,107.372734 
	C199.944794,104.381828 201.353409,103.186790 204.552826,103.345978 
	C209.538208,103.594025 214.581421,103.785278 219.532196,103.303070 
	C224.207947,102.847649 226.730850,104.479210 227.683960,108.956200 
	C227.889130,109.919968 228.373032,110.824402 228.847473,112.126114 
M222.982574,152.486069 
	C219.729187,144.030380 216.475815,135.574707 212.778519,125.965279 
	C208.448135,137.504227 204.594955,147.771606 200.663269,158.248169 
	C209.227463,158.248169 216.944183,158.248169 225.070084,158.248169 
	C224.338516,156.274841 223.774323,154.753006 222.982574,152.486069 
z"/>
<path fill="#FCFDFC" opacity="1.000000" stroke="none" 
	d="
M122.987137,191.826813 
	C122.925301,193.612228 122.863487,194.918091 122.787117,196.531479 
	C115.210258,196.531479 107.814590,196.531479 100.092171,196.531479 
	C100.092171,165.639587 100.092171,134.895477 100.092171,103.780823 
	C122.352745,103.780823 144.567200,103.780823 167.022797,103.780823 
	C167.022797,109.600258 167.022797,115.212463 167.022797,121.346596 
	C152.485428,121.346596 138.068420,121.346596 123.321381,121.346596 
	C123.321381,128.085098 123.321381,134.308685 123.321381,140.875977 
	C136.073029,140.875977 148.681793,140.875977 161.651047,140.875977 
	C161.651047,146.931885 161.651047,152.666504 161.651047,158.982193 
	C149.053268,158.982193 136.336609,158.982193 122.987167,158.982193 
	C122.987167,170.145462 122.987167,180.746368 122.987137,191.826813 
z"/>
<path fill="#44A857" opacity="1.000000" stroke="none" 
	d="
M565.062622,283.998688 
	C565.062683,276.534790 565.062683,269.570709 565.062683,262.302002 
	C576.028137,262.302002 586.694885,261.529633 597.195557,262.519440 
	C607.677551,263.507477 612.990723,273.892151 610.718689,286.395905 
	C609.044128,295.611511 603.426453,300.748718 593.918762,301.030670 
	C584.483154,301.310516 575.032715,301.091919 565.062500,301.091919 
	C565.062500,295.409882 565.062500,289.954193 565.062622,283.998688 
z"/>
<path fill="#44A757" opacity="1.000000" stroke="none" 
	d="
M440.861267,321.517700 
	C437.833191,330.456451 431.280792,334.998444 422.834564,335.657837 
	C412.787109,336.442261 402.631622,335.842529 392.249725,335.842529 
	C392.249725,311.514801 392.249725,287.100769 392.249725,261.360657 
	C403.819122,262.094727 415.431580,262.144012 426.816559,263.778107 
	C435.448639,265.017090 439.978210,271.962585 441.669830,280.119049 
	C444.504944,293.788849 444.788147,307.526855 440.861267,321.517700 
z"/>
<path fill="#46A859" opacity="1.000000" stroke="none" 
	d="
M296.167938,130.061035 
	C296.167969,127.120804 296.167969,124.670692 296.167969,122.075439 
	C304.086578,122.075439 311.542847,121.515976 318.870636,122.245964 
	C325.146912,122.871201 328.386108,128.869400 327.930664,136.703552 
	C327.519318,143.779022 323.371979,148.643555 316.674713,149.013611 
	C310.078217,149.378098 303.445831,149.093155 296.167908,149.093155 
	C296.167908,142.718185 296.167908,136.634659 296.167938,130.061035 
z"/>
<path fill="#4CAB5E" opacity="1.000000" stroke="none" 
	d="
M223.096344,152.858612 
	C223.774323,154.753006 224.338516,156.274841 225.070084,158.248169 
	C216.944183,158.248169 209.227463,158.248169 200.663269,158.248169 
	C204.594955,147.771606 208.448135,137.504227 212.778519,125.965279 
	C216.475815,135.574707 219.729187,144.030380 223.096344,152.858612 
z"/>
</svg>