<svg version="1.1" id="Layer_1" xmlns="http://www.w3.org/2000/svg" xmlns:xlink="http://www.w3.org/1999/xlink" x="0px" y="0px"
	 width="100%" viewBox="0 0 558 280" enable-background="new 0 0 558 280" xml:space="preserve">
<path fill="#44A557" opacity="1.000000" stroke="none" 
	d="
M559.000000,150.000000 
	C559.000000,193.636703 559.000000,237.273392 559.000000,281.000000 
	C391.311920,281.000000 223.623810,281.000000 55.467873,280.531342 
	C55.000042,236.484573 55.000042,192.906448 55.000042,150.000000 
	C223.532700,150.000000 391.266357,150.000000 559.000000,150.000000 
M524.785828,226.816132 
	C523.950928,225.862198 523.116028,224.908249 522.215271,223.879044 
	C533.977600,219.215576 538.673828,213.796570 540.606140,202.881042 
	C544.177063,182.709793 532.596130,168.600845 512.328125,168.506577 
	C500.336426,168.450806 488.344177,168.486786 476.352264,168.507523 
	C474.732300,168.510315 473.112610,168.665405 471.507874,168.749207 
	C471.507874,199.938522 471.507874,230.663239 471.507874,261.547943 
	C475.436798,261.547943 479.010376,261.547943 483.187195,261.547943 
	C483.187195,249.879730 483.187195,238.492020 483.187195,226.848389 
	C490.610199,226.848389 497.430756,226.966095 504.245331,226.813766 
	C510.483765,226.674301 514.598633,229.280563 516.999023,235.117096 
	C520.222595,242.955200 523.703003,250.690826 527.238953,258.394348 
	C527.850525,259.726837 529.167419,261.483063 530.360168,261.656372 
	C533.513672,262.114563 536.777710,261.811615 541.197449,261.811615 
	C535.526733,249.601517 530.370422,238.499146 524.785828,226.816132 
M330.271484,168.499527 
	C319.648804,168.499527 309.026123,168.499527 298.340637,168.499527 
	C298.340637,199.862167 298.340637,230.598770 298.340637,261.617432 
	C299.919128,261.701477 301.215820,261.847900 302.509918,261.827454 
	C315.819702,261.617340 329.195343,262.131348 342.421997,260.963715 
	C359.577698,259.449127 369.042603,250.811707 371.613464,233.928909 
	C373.223450,223.356247 373.692902,212.259720 372.418030,201.669861 
	C369.652344,178.696701 359.376892,170.003067 336.212128,168.647141 
	C334.550446,168.549881 332.883209,168.546921 330.271484,168.499527 
M112.131302,167.563904 
	C93.919807,169.033630 81.700668,178.096710 76.426506,195.859222 
	C73.291847,206.416229 72.789139,217.228134 74.468079,228.021957 
	C76.666855,242.157715 83.124420,253.793137 97.108521,259.176758 
	C113.997856,265.678864 130.981766,264.701385 147.696732,257.859955 
	C150.793747,256.592346 151.762527,254.610199 151.628510,251.310806 
	C151.364975,244.823792 151.555557,238.318390 151.556641,231.820587 
	C151.557755,225.214294 151.556900,218.608017 151.556900,211.867523 
	C139.484314,211.867523 128.097244,211.867523 116.715698,211.867523 
	C116.715698,214.668091 116.715698,217.067490 116.715698,220.011047 
	C125.009834,220.011047 132.913498,220.011047 141.141769,220.011047 
	C141.141769,229.199646 141.263641,237.842514 141.007462,246.474167 
	C140.969986,247.736771 139.252304,249.883759 138.107910,250.030640 
	C129.420380,251.145645 120.570572,253.159134 111.984123,252.420181 
	C96.992897,251.130035 88.650200,242.906738 86.551010,228.075684 
	C85.425690,220.125137 85.473236,211.686844 86.806618,203.774536 
	C89.932823,185.223679 100.071625,177.319275 118.944771,177.236145 
	C121.766495,177.223709 124.630104,177.348038 127.404114,177.820999 
	C133.218658,178.812332 138.986450,180.077911 144.787231,181.233627 
	C144.787231,177.947235 144.787231,174.679367 144.787231,171.438980 
	C134.260559,167.962799 123.781593,166.578140 112.131302,167.563904 
M422.500336,219.840363 
	C431.101410,219.840363 439.702515,219.840363 448.375458,219.840363 
	C448.375458,216.402603 448.375458,213.684189 448.375458,210.378967 
	C433.109772,210.378967 418.211975,210.378967 403.123840,210.378967 
	C403.123840,199.360931 403.123840,188.942291 403.123840,177.977692 
	C420.084595,177.977692 436.818481,177.977692 453.741150,177.977692 
	C453.741150,174.658646 453.741150,171.885056 453.741150,168.804886 
	C432.817017,168.804886 412.068024,168.804886 391.280273,168.804886 
	C391.280273,199.860504 391.280273,230.614365 391.280273,261.421692 
	C412.285431,261.421692 432.985046,261.421692 453.754669,261.421692 
	C453.754669,258.366791 453.754669,255.731659 453.754669,252.474182 
	C436.839783,252.474182 420.103516,252.474182 403.233185,252.474182 
	C403.233185,241.294449 403.233185,230.740707 403.233185,219.840363 
	C409.551270,219.840363 415.525909,219.840363 422.500336,219.840363 
M222.616745,261.354706 
	C227.256607,258.863037 232.435028,257.025787 236.423950,253.743118 
	C244.670959,246.956284 246.354614,237.205566 246.373917,227.095581 
	C246.408234,209.112228 246.398483,191.128769 246.376907,173.145386 
	C246.375214,171.724243 246.138046,170.303406 246.000290,168.770905 
	C242.119995,168.770905 238.682037,168.770905 234.630920,168.770905 
	C234.630920,170.982056 234.642166,172.932053 234.629181,174.881897 
	C234.502701,193.858612 234.608353,212.841003 234.147308,231.809631 
	C233.901459,241.924530 228.089020,248.339264 218.573517,251.540543 
	C196.549698,258.949982 180.011826,247.284592 180.005417,224.292068 
	C180.001755,211.137527 180.004227,197.982971 180.003998,184.828430 
	C180.003906,179.550995 180.003983,174.273575 180.003983,168.940216 
	C175.768967,168.940216 172.065262,168.940216 168.236862,168.940216 
	C168.236862,190.012131 167.882111,210.657394 168.370804,231.282684 
	C168.660828,243.523544 173.901749,253.510437 185.639557,258.926178 
	C197.337509,264.323547 209.526596,263.947388 222.616745,261.354706 
M277.897125,222.500031 
	C277.897125,204.715103 277.897125,186.930161 277.897125,168.831299 
	C273.744385,168.831299 270.015289,168.831299 266.285400,168.831299 
	C266.285400,199.899078 266.285400,230.633942 266.285400,261.390808 
	C270.281952,261.390808 273.970215,261.390808 277.897156,261.390808 
	C277.897156,248.462158 277.897156,235.981094 277.897125,222.500031 
z"/>

<path fill="#45A558" opacity="1.000000" stroke="none" 
	d="
M395.531342,1.000000 
	C395.985077,43.364426 395.970154,85.728851 395.435181,128.556320 
	C263.610077,129.012909 132.305038,129.006454 1.000000,129.000000 
	C1.000000,86.369041 1.000000,43.738079 1.000000,1.000000 
	C132.354202,1.000000 263.708435,1.000000 395.531342,1.000000 
M377.939178,104.416031 
	C377.939178,76.307892 377.939178,48.199753 377.939178,19.516756 
	C371.441467,19.516756 365.477875,19.715780 359.536469,19.438831 
	C356.206573,19.283615 354.461060,20.437996 353.040222,23.429392 
	C346.191528,37.848339 339.133057,52.167717 332.128937,66.512634 
	C331.505707,67.789032 330.738037,68.994911 329.752258,70.737793 
	C328.616119,68.528580 327.769806,66.946411 326.979736,65.336632 
	C320.092194,51.303947 313.255432,37.246002 306.273346,23.260572 
	C305.549896,21.811434 304.029724,19.788519 302.795013,19.727165 
	C295.887939,19.383945 288.954987,19.562031 282.011810,19.562031 
	C282.011810,51.005043 282.011810,81.704376 282.011810,112.433075 
	C289.816650,112.433075 297.200958,112.433075 305.217346,112.433075 
	C305.217346,95.287506 305.217346,78.532913 305.217346,61.778324 
	C311.121613,71.995682 316.439484,82.172699 321.139954,92.627289 
	C322.895111,96.531082 325.356384,97.130699 328.920898,96.856178 
	C332.528015,96.578369 336.283783,97.914154 338.316925,92.788109 
	C341.190155,85.543892 345.049438,78.689857 348.506104,71.678345 
	C350.216156,68.209709 351.968414,64.761894 353.701599,61.304661 
	C354.052551,61.404617 354.403503,61.504570 354.754456,61.604527 
	C354.754456,78.484421 354.754456,95.364311 354.754456,112.534286 
	C362.640533,112.534286 370.031403,112.534286 377.939178,112.534286 
	C377.939178,109.968376 377.939178,107.676964 377.939178,104.416031 
M266.360199,107.261879 
	C261.995758,97.514778 257.631317,87.767685 253.232941,77.944801 
	C253.177628,77.979362 253.590286,77.698402 254.023605,77.454071 
	C266.908508,70.188431 272.209656,57.411892 268.704498,42.061378 
	C265.473938,27.913507 256.425690,20.503023 240.805573,19.817862 
	C231.328506,19.402161 221.824280,19.587500 212.332092,19.540754 
	C205.384537,19.506538 198.436676,19.534052 191.248795,19.534052 
	C191.248795,50.809837 191.248795,81.537216 191.248795,112.517769 
	C198.888596,112.517769 206.279343,112.517769 214.284241,112.517769 
	C214.284241,102.674973 214.284241,93.115410 214.284241,83.161751 
	C217.531769,83.161751 220.184998,83.352707 222.801422,83.123474 
	C228.954361,82.584404 232.841751,85.002457 235.044937,90.929764 
	C237.357941,97.152496 240.201340,103.189316 243.059143,109.190140 
	C243.745087,110.630486 245.359161,112.576088 246.624710,112.636040 
	C253.684540,112.970474 260.768433,112.796753 268.429474,112.796753 
	C267.690430,110.687164 267.212646,109.323326 266.360199,107.261879 
M171.581268,92.935463 
	C164.052872,73.231102 156.544647,53.518993 148.981186,33.828106 
	C147.203079,29.198973 146.439819,22.917412 143.021866,20.535639 
	C139.599243,18.150587 133.439926,19.676144 128.479034,19.523907 
	C126.650055,19.467779 124.788818,19.723083 122.993286,19.471882 
	C119.337929,18.960484 117.859352,20.666574 116.612877,23.975733 
	C106.016167,52.108177 95.210670,80.161957 84.484566,108.245728 
	C83.968613,109.596619 83.609962,111.007584 83.042130,112.825851 
	C90.463120,112.825851 97.426376,112.978386 104.371330,112.690071 
	C105.674248,112.635986 107.479919,111.078079 108.065376,109.771370 
	C110.303368,104.776245 111.946526,99.511642 114.246887,94.549362 
	C114.885513,93.171722 116.998131,91.676941 118.483002,91.625107 
	C126.628075,91.340775 134.791580,91.621544 142.941422,91.416718 
	C145.869675,91.343132 147.022797,92.651352 147.919144,95.108192 
	C149.740250,100.099678 151.661682,105.065010 153.830673,109.911819 
	C154.377182,111.133003 155.986374,112.651573 157.156082,112.694252 
	C164.240311,112.952744 171.338684,112.822998 179.072159,112.822998 
	C176.515930,106.018654 174.193970,99.837837 171.581268,92.935463 
M40.977753,107.318520 
	C40.977753,96.725006 40.977753,86.131493 40.977753,74.947739 
	C54.375908,74.947739 67.086273,74.947739 79.603706,74.947739 
	C79.603706,68.605820 79.603706,62.875549 79.603706,56.811821 
	C66.598045,56.811821 53.992722,56.811821 41.347374,56.811821 
	C41.347374,50.250076 41.347374,44.051666 41.347374,37.258827 
	C56.103104,37.258827 70.495499,37.258827 84.901917,37.258827 
	C84.901917,31.080256 84.901917,25.509983 84.901917,19.832920 
	C62.464504,19.832920 40.391182,19.832920 18.081936,19.832920 
	C18.081936,50.862759 18.081936,81.582344 18.081936,112.499466 
	C25.788725,112.499466 33.179295,112.499466 40.756447,112.499466 
	C40.841110,110.881615 40.909355,109.577477 40.977753,107.318520 
z"/>
<path fill="#5BAF6C" opacity="1.000000" stroke="none" 
	d="
M1.000000,129.250000 
	C132.305038,129.006454 263.610077,129.012909 395.372803,129.023010 
	C393.823059,129.350647 391.815704,129.957581 389.808136,129.958267 
	C260.517853,130.003311 131.227585,129.999176 1.468657,129.999725 
	C1.000000,130.000000 1.000000,129.500000 1.000000,129.250000 
z"/>
<path fill="#F8FAF9" opacity="1.000000" stroke="none" 
	d="
M525.000000,227.106445 
	C530.370422,238.499146 535.526733,249.601517 541.197449,261.811615 
	C536.777710,261.811615 533.513672,262.114563 530.360168,261.656372 
	C529.167419,261.483063 527.850525,259.726837 527.238953,258.394348 
	C523.703003,250.690826 520.222595,242.955200 516.999023,235.117096 
	C514.598633,229.280563 510.483765,226.674301 504.245331,226.813766 
	C497.430756,226.966095 490.610199,226.848389 483.187195,226.848389 
	C483.187195,238.492020 483.187195,249.879730 483.187195,261.547943 
	C479.010376,261.547943 475.436798,261.547943 471.507874,261.547943 
	C471.507874,230.663239 471.507874,199.938522 471.507874,168.749207 
	C473.112610,168.665405 474.732300,168.510315 476.352264,168.507523 
	C488.344177,168.486786 500.336426,168.450806 512.328125,168.506577 
	C532.596130,168.600845 544.177063,182.709793 540.606140,202.881042 
	C538.673828,213.796570 533.977600,219.215576 522.215271,223.879044 
	C523.116028,224.908249 523.950928,225.862198 525.000000,227.106445 
M483.055145,202.495636 
	C483.055145,207.391861 483.055145,212.288071 483.055145,217.095001 
	C493.351288,217.095001 502.808075,217.343872 512.245667,217.024612 
	C521.587036,216.708603 527.277954,211.305939 528.775085,202.157608 
	C530.796936,189.802963 525.674500,179.552307 515.559753,178.561600 
	C504.936890,177.521103 494.133026,178.328751 483.055237,178.328751 
	C483.055237,186.269012 483.055237,193.882828 483.055145,202.495636 
z"/>
<path fill="#F9FAF9" opacity="1.000000" stroke="none" 
	d="
M330.745026,168.499817 
	C332.883209,168.546921 334.550446,168.549881 336.212128,168.647141 
	C359.376892,170.003067 369.652344,178.696701 372.418030,201.669861 
	C373.692902,212.259720 373.223450,223.356247 371.613464,233.928909 
	C369.042603,250.811707 359.577698,259.449127 342.421997,260.963715 
	C329.195343,262.131348 315.819702,261.617340 302.509918,261.827454 
	C301.215820,261.847900 299.919128,261.701477 298.340637,261.617432 
	C298.340637,230.598770 298.340637,199.862167 298.340637,168.499527 
	C309.026123,168.499527 319.648804,168.499527 330.745026,168.499817 
M309.972870,206.500000 
	C309.972870,221.733200 309.972870,236.966400 309.972870,251.924881 
	C320.549133,251.924881 330.393311,252.490021 340.143555,251.774643 
	C351.090271,250.971481 357.304413,245.088303 359.789856,234.286957 
	C362.705994,221.614136 362.475891,208.818787 359.718384,196.158035 
	C357.851593,187.586945 352.991364,180.646774 343.961090,179.447769 
	C332.870422,177.975174 321.570343,178.079391 309.973328,177.482025 
	C309.973328,187.580505 309.973328,196.540253 309.972870,206.500000 
z"/>
<path fill="#F7F9F7" opacity="1.000000" stroke="none" 
	d="
M112.576782,167.469849 
	C123.781593,166.578140 134.260559,167.962799 144.787231,171.438980 
	C144.787231,174.679367 144.787231,177.947235 144.787231,181.233627 
	C138.986450,180.077911 133.218658,178.812332 127.404114,177.820999 
	C124.630104,177.348038 121.766495,177.223709 118.944771,177.236145 
	C100.071625,177.319275 89.932823,185.223679 86.806618,203.774536 
	C85.473236,211.686844 85.425690,220.125137 86.551010,228.075684 
	C88.650200,242.906738 96.992897,251.130035 111.984123,252.420181 
	C120.570572,253.159134 129.420380,251.145645 138.107910,250.030640 
	C139.252304,249.883759 140.969986,247.736771 141.007462,246.474167 
	C141.263641,237.842514 141.141769,229.199646 141.141769,220.011047 
	C132.913498,220.011047 125.009834,220.011047 116.715698,220.011047 
	C116.715698,217.067490 116.715698,214.668091 116.715698,211.867523 
	C128.097244,211.867523 139.484314,211.867523 151.556900,211.867523 
	C151.556900,218.608017 151.557755,225.214294 151.556641,231.820587 
	C151.555557,238.318390 151.364975,244.823792 151.628510,251.310806 
	C151.762527,254.610199 150.793747,256.592346 147.696732,257.859955 
	C130.981766,264.701385 113.997856,265.678864 97.108521,259.176758 
	C83.124420,253.793137 76.666855,242.157715 74.468079,228.021957 
	C72.789139,217.228134 73.291847,206.416229 76.426506,195.859222 
	C81.700668,178.096710 93.919807,169.033630 112.576782,167.469849 
z"/>
<path fill="#F9FAF9" opacity="1.000000" stroke="none" 
	d="
M422.000427,219.840363 
	C415.525909,219.840363 409.551270,219.840363 403.233185,219.840363 
	C403.233185,230.740707 403.233185,241.294449 403.233185,252.474182 
	C420.103516,252.474182 436.839783,252.474182 453.754669,252.474182 
	C453.754669,255.731659 453.754669,258.366791 453.754669,261.421692 
	C432.985046,261.421692 412.285431,261.421692 391.280273,261.421692 
	C391.280273,230.614365 391.280273,199.860504 391.280273,168.804886 
	C412.068024,168.804886 432.817017,168.804886 453.741150,168.804886 
	C453.741150,171.885056 453.741150,174.658646 453.741150,177.977692 
	C436.818481,177.977692 420.084595,177.977692 403.123840,177.977692 
	C403.123840,188.942291 403.123840,199.360931 403.123840,210.378967 
	C418.211975,210.378967 433.109772,210.378967 448.375458,210.378967 
	C448.375458,213.684189 448.375458,216.402603 448.375458,219.840363 
	C439.702515,219.840363 431.101410,219.840363 422.000427,219.840363 
z"/>
<path fill="#FAFBFA" opacity="1.000000" stroke="none" 
	d="
M222.223465,261.476959 
	C209.526596,263.947388 197.337509,264.323547 185.639557,258.926178 
	C173.901749,253.510437 168.660828,243.523544 168.370804,231.282684 
	C167.882111,210.657394 168.236862,190.012131 168.236862,168.940216 
	C172.065262,168.940216 175.768967,168.940216 180.003983,168.940216 
	C180.003983,174.273575 180.003906,179.550995 180.003998,184.828430 
	C180.004227,197.982971 180.001755,211.137527 180.005417,224.292068 
	C180.011826,247.284592 196.549698,258.949982 218.573517,251.540543 
	C228.089020,248.339264 233.901459,241.924530 234.147308,231.809631 
	C234.608353,212.841003 234.502701,193.858612 234.629181,174.881897 
	C234.642166,172.932053 234.630920,170.982056 234.630920,168.770905 
	C238.682037,168.770905 242.119995,168.770905 246.000290,168.770905 
	C246.138046,170.303406 246.375214,171.724243 246.376907,173.145386 
	C246.398483,191.128769 246.408234,209.112228 246.373917,227.095581 
	C246.354614,237.205566 244.670959,246.956284 236.423950,253.743118 
	C232.435028,257.025787 227.256607,258.863037 222.223465,261.476959 
z"/>
<path fill="#F9FAF9" opacity="1.000000" stroke="none" 
	d="
M277.897156,223.000031 
	C277.897156,235.981094 277.897156,248.462158 277.897156,261.390808 
	C273.970215,261.390808 270.281952,261.390808 266.285400,261.390808 
	C266.285400,230.633942 266.285400,199.899078 266.285400,168.831299 
	C270.015289,168.831299 273.744385,168.831299 277.897125,168.831299 
	C277.897125,186.930161 277.897125,204.715103 277.897156,223.000031 
z"/>
<path fill="#FAFBFA" opacity="1.000000" stroke="none" 
	d="
M377.939178,104.900787 
	C377.939178,107.676964 377.939178,109.968376 377.939178,112.534286 
	C370.031403,112.534286 362.640533,112.534286 354.754456,112.534286 
	C354.754456,95.364311 354.754456,78.484421 354.754456,61.604527 
	C354.403503,61.504570 354.052551,61.404617 353.701599,61.304661 
	C351.968414,64.761894 350.216156,68.209709 348.506104,71.678345 
	C345.049438,78.689857 341.190155,85.543892 338.316925,92.788109 
	C336.283783,97.914154 332.528015,96.578369 328.920898,96.856178 
	C325.356384,97.130699 322.895111,96.531082 321.139954,92.627289 
	C316.439484,82.172699 311.121613,71.995682 305.217346,61.778324 
	C305.217346,78.532913 305.217346,95.287506 305.217346,112.433075 
	C297.200958,112.433075 289.816650,112.433075 282.011810,112.433075 
	C282.011810,81.704376 282.011810,51.005043 282.011810,19.562031 
	C288.954987,19.562031 295.887939,19.383945 302.795013,19.727165 
	C304.029724,19.788519 305.549896,21.811434 306.273346,23.260572 
	C313.255432,37.246002 320.092194,51.303947 326.979736,65.336632 
	C327.769806,66.946411 328.616119,68.528580 329.752258,70.737793 
	C330.738037,68.994911 331.505707,67.789032 332.128937,66.512634 
	C339.133057,52.167717 346.191528,37.848339 353.040222,23.429392 
	C354.461060,20.437996 356.206573,19.283615 359.536469,19.438831 
	C365.477875,19.715780 371.441467,19.516756 377.939178,19.516756 
	C377.939178,48.199753 377.939178,76.307892 377.939178,104.900787 
z"/>
<path fill="#FDFEFE" opacity="1.000000" stroke="none" 
	d="
M266.547546,107.610687 
	C267.212646,109.323326 267.690430,110.687164 268.429474,112.796753 
	C260.768433,112.796753 253.684540,112.970474 246.624710,112.636040 
	C245.359161,112.576088 243.745087,110.630486 243.059143,109.190140 
	C240.201340,103.189316 237.357941,97.152496 235.044937,90.929764 
	C232.841751,85.002457 228.954361,82.584404 222.801422,83.123474 
	C220.184998,83.352707 217.531769,83.161751 214.284241,83.161751 
	C214.284241,93.115410 214.284241,102.674973 214.284241,112.517769 
	C206.279343,112.517769 198.888596,112.517769 191.248795,112.517769 
	C191.248795,81.537216 191.248795,50.809837 191.248795,19.534052 
	C198.436676,19.534052 205.384537,19.506538 212.332092,19.540754 
	C221.824280,19.587500 231.328506,19.402161 240.805573,19.817862 
	C256.425690,20.503023 265.473938,27.913507 268.704498,42.061378 
	C272.209656,57.411892 266.908508,70.188431 254.023605,77.454071 
	C253.590286,77.698402 253.177628,77.979362 253.232941,77.944801 
	C257.631317,87.767685 261.995758,97.514778 266.547546,107.610687 
M214.161697,48.545242 
	C214.161697,53.975658 214.161697,59.406078 214.161697,65.114799 
	C221.489243,65.114799 228.137634,65.409767 234.747513,65.031487 
	C241.301910,64.656372 245.355682,59.987095 245.915802,53.125854 
	C246.552155,45.330677 243.443481,39.019691 237.268219,38.337872 
	C229.781845,37.511284 222.134598,38.141731 214.161697,38.141731 
	C214.161697,41.293030 214.161697,44.430058 214.161697,48.545242 
z"/>
<path fill="#FAFBFA" opacity="1.000000" stroke="none" 
	d="
M171.726624,93.296242 
	C174.193970,99.837837 176.515930,106.018654 179.072159,112.822998 
	C171.338684,112.822998 164.240311,112.952744 157.156082,112.694252 
	C155.986374,112.651573 154.377182,111.133003 153.830673,109.911819 
	C151.661682,105.065010 149.740250,100.099678 147.919144,95.108192 
	C147.022797,92.651352 145.869675,91.343132 142.941422,91.416718 
	C134.791580,91.621544 126.628075,91.340775 118.483002,91.625107 
	C116.998131,91.676941 114.885513,93.171722 114.246887,94.549362 
	C111.946526,99.511642 110.303368,104.776245 108.065376,109.771370 
	C107.479919,111.078079 105.674248,112.635986 104.371330,112.690071 
	C97.426376,112.978386 90.463120,112.825851 83.042130,112.825851 
	C83.609962,111.007584 83.968613,109.596619 84.484566,108.245728 
	C95.210670,80.161957 106.016167,52.108177 116.612877,23.975733 
	C117.859352,20.666574 119.337929,18.960484 122.993286,19.471882 
	C124.788818,19.723083 126.650055,19.467779 128.479034,19.523907 
	C133.439926,19.676144 139.599243,18.150587 143.021866,20.535639 
	C146.439819,22.917412 147.203079,29.198973 148.981186,33.828106 
	C156.544647,53.518993 164.052872,73.231102 171.726624,93.296242 
M129.854309,44.616505 
	C126.168007,54.315990 122.481705,64.015480 118.633324,74.141411 
	C127.091606,74.141411 134.879349,74.141411 143.132095,74.141411 
	C139.277405,64.060722 135.638977,54.486713 131.905991,44.949718 
	C131.710541,44.450359 130.711502,44.265530 129.854309,44.616505 
z"/>
<path fill="#FCFCFC" opacity="1.000000" stroke="none" 
	d="
M40.977676,107.795929 
	C40.909355,109.577477 40.841110,110.881615 40.756447,112.499466 
	C33.179295,112.499466 25.788725,112.499466 18.081936,112.499466 
	C18.081936,81.582344 18.081936,50.862759 18.081936,19.832920 
	C40.391182,19.832920 62.464504,19.832920 84.901917,19.832920 
	C84.901917,25.509983 84.901917,31.080256 84.901917,37.258827 
	C70.495499,37.258827 56.103104,37.258827 41.347374,37.258827 
	C41.347374,44.051666 41.347374,50.250076 41.347374,56.811821 
	C53.992722,56.811821 66.598045,56.811821 79.603706,56.811821 
	C79.603706,62.875549 79.603706,68.605820 79.603706,74.947739 
	C67.086273,74.947739 54.375908,74.947739 40.977753,74.947739 
	C40.977753,86.131493 40.977753,96.725006 40.977676,107.795929 
z"/>
<path fill="#45A558" opacity="1.000000" stroke="none" 
	d="
M483.055176,201.996140 
	C483.055237,193.882828 483.055237,186.269012 483.055237,178.328751 
	C494.133026,178.328751 504.936890,177.521103 515.559753,178.561600 
	C525.674500,179.552307 530.796936,189.802963 528.775085,202.157608 
	C527.277954,211.305939 521.587036,216.708603 512.245667,217.024612 
	C502.808075,217.343872 493.351288,217.095001 483.055145,217.095001 
	C483.055145,212.288071 483.055145,207.391861 483.055176,201.996140 
z"/>
<path fill="#44A557" opacity="1.000000" stroke="none" 
	d="
M309.973083,206.000000 
	C309.973328,196.540253 309.973328,187.580505 309.973328,177.482025 
	C321.570343,178.079391 332.870422,177.975174 343.961090,179.447769 
	C352.991364,180.646774 357.851593,187.586945 359.718384,196.158035 
	C362.475891,208.818787 362.705994,221.614136 359.789856,234.286957 
	C357.304413,245.088303 351.090271,250.971481 340.143555,251.774643 
	C330.393311,252.490021 320.549133,251.924881 309.972870,251.924881 
	C309.972870,236.966400 309.972870,221.733200 309.973083,206.000000 
z"/>
<path fill="#48A65A" opacity="1.000000" stroke="none" 
	d="
M214.161697,48.056164 
	C214.161697,44.430058 214.161697,41.293030 214.161697,38.141731 
	C222.134598,38.141731 229.781845,37.511284 237.268219,38.337872 
	C243.443481,39.019691 246.552155,45.330677 245.915802,53.125854 
	C245.355682,59.987095 241.301910,64.656372 234.747513,65.031487 
	C228.137634,65.409767 221.489243,65.114799 214.161697,65.114799 
	C214.161697,59.406078 214.161697,53.975658 214.161697,48.056164 
z"/>
<path fill="#4CA85E" opacity="1.000000" stroke="none" 
	d="
M129.970444,44.275387 
	C130.711502,44.265530 131.710541,44.450359 131.905991,44.949718 
	C135.638977,54.486713 139.277405,64.060722 143.132095,74.141411 
	C134.879349,74.141411 127.091606,74.141411 118.633324,74.141411 
	C122.481705,64.015480 126.168007,54.315990 129.970444,44.275387 
z"/>
</svg>